<?xml version="1.0" encoding="UTF-8"?>
<svg id="Layer_2" data-name="Layer 2" xmlns="http://www.w3.org/2000/svg" viewBox="0 0 1652.06 637.4">
  <defs>
    <style>
      .cls-1 {
        fill: #a0c53a;
        stroke-width: 0px;
      }
    </style>
  </defs>
  <g id="Layer_1-2" data-name="Layer 1">
    <g>
      <path class="cls-1" d="M1002.39,515.12c.63-.66,1.28-.35,1.89-.39,3.84-.26,6.41-3.94,4.98-7.43-.95-2.33-2.85-4.25-2.99-6.95-.01-.27-.29-.65-.54-.76-2.39-1.02-3.81-2.62-3.79-5.41,0-.77-1.05-1.12-1.84-1.31-1.28-.32-2.38-.81-3.06-2.06-1.39-2.57-3.8-3.88-6.42-4.7-1.89-.59-3.44-1.26-4.64-3.02-1.18-1.73-3.58-1.66-5.02-.17-.66.68-1.09,1.57-1.68,2.32-.63.8-1.51,1.12-2.53,1.1-1.03-.03-1.87-.8-1.8-1.8.09-1.43.33-2.85.33-4.28,0-1.3-1.26-2.12-2.32-1.51-2.08,1.19-4.19,2.27-6.51,2.93-1.33.38-1.97,1.58-2.56,2.72-.51,1.01-1.38,1.41-2.36,1.21-5.42-1.08-10,1.12-14.54,3.58-2.55,1.38-5.16,2.55-8.19,2.24-1.88-.19-3.4.76-4.86,1.74-2.39,1.6-4.72,3.28-7.12,4.86-.31.2-1.03.19-1.28-.04-.29-.26-.41-.89-.34-1.32.09-.6.26-1.3.65-1.74,2.65-3.02,1.87-6.41.52-9.41-2.41-5.32-3.61-10.81-4.22-16.58-.76-7.3-1.93-14.57-4.62-21.49-.93-2.38-1.75-4.8-2.59-7.22-.79-2.27-1.43-4.53-1.41-7,.03-3.64-1.29-6.94-3.81-9.54-2.37-2.45-3.36-5.28-3.7-8.58-.36-3.48-1.23-6.91-1.63-10.39-.46-3.97-.56-7.99.1-11.95.96-5.73.91-11.44-.05-17.15-.29-1.72-.27-3.47-.81-5.19-1.7-5.39-4.79-9.71-9.4-12.95-1.17-.83-2.39-1.6-3.62-2.34-1.79-1.08-2.88-2.73-2.76-4.73.23-3.9-.52-7.62-1.43-11.35-.58-2.38-.2-4.42,1.83-6.01,1.24-.98,1.55-2.28,1.36-3.85-.6-4.89-.52-9.89-2.56-14.54-.66-1.5-.65-3.14-.53-4.73.3-4.09-.73-7.75-2.48-11.51-5.06-10.85-9.7-21.9-14.5-32.88-1.47-3.37-2.9-6.75-4.31-10.14-.29-.69.07-1.24.76-1.48.44-.15.93-.22,1.4-.27,4.29-.45,8.58-.89,12.88-1.32,7.15-.71,14.29-1.4,21.44-2.11,8.73-.86,17.48-1.56,26.18-2.65,6.66-.83,13.34-1.34,20.01-1.96,3.96-.37,7.9-.99,11.86-1.44,2.06-.23,4.14-.44,6.21-.44,2.81,0,5.31-.81,7.7-2.25,9.71-5.87,19.46-11.66,29.17-17.53,8.07-4.87,16.04-9.91,24.17-14.68,6.16-3.62,12.74-5.97,20.07-4.93,2.02.29,3.89-.11,5.54-1.07,2.56-1.49,4.9-1.91,7.6-.22,1.3.82,3.02.99,4.55,1.43,1.34.39,2.24,1.2,2.59,2.57.59,2.32,1.14,4.64,1.74,6.96.6,2.32,1.26,4.62,1.88,6.93.55,2.07,1.82,3.72,3.1,5.35.92,1.16,2.05,1.91,3.56,2.23,2.34.5,4.62,1.25,6.96,1.76,1.47.32,2.13,1.3,2.55,2.55.74,2.2.65,4.43-.09,6.6-.58,1.69-.76,3.42-.86,5.18-.14,2.58.68,4.71,2.84,6.25,2.08,1.48,4.06,2.97,4.87,5.65.41,1.34,1.65,2.34,2.96,3.03,1.78.95,2.88,2.49,3.78,4.21,1.63,3.11,3.21,6.26,4.92,9.33,1.09,1.95,2.44,3.74,3.58,5.66,1.43,2.38,3.65,3.49,6.22,4.08,2.5.58,4.76.51,6.11-2.18.2-.41.62-.72.97-1.04.58-.52,1.71-.43,2.12.25.49.81,1.02,1.66,1.21,2.56.46,2.15,1.81,2.86,3.82,2.76,3.96-.2,3.76.16,4.03,3.95.45,6.32-1.33,11.99-4.26,17.44-.3.56-.69,1.08-.97,1.66-1.89,3.93-1.27,6.92,2.22,9.72,1.61,1.29,3.43,2.34,5.19,3.42,3.05,1.87,3.72,3.99,1.78,7.12-2.86,4.61-5.79,9.2-8.94,13.62-2.61,3.66-4.86,7.51-7.1,11.38-1.6,2.78-3.27,5.49-5.91,7.45-2.24,1.66-3.23,3.94-2.97,6.7.33,3.49.64,7,1.17,10.46.27,1.76,1.45,3.21,2.71,4.45,1.13,1.12,2.31,2.31,3.7,3.01,3.87,1.96,7.41,4.4,11,6.8,1.31.88,2.86,1.4,4.3,2.07.86.4,1.95.56,2.57,1.19,1.9,1.91,4.12,2.87,6.75,3.23,1.31.18,2.3,1.14,3.03,2.22,2.15,3.17,4.25,6.38,6.31,9.6.42.65.74,1.43.89,2.19.28,1.48-.92,2.79-2.41,2.86-1.65.08-3.18-.27-4.56-1.19-.95-.64-2.02-1.34-3.11-.94-1.83.68-3.57,1.08-5.53.6-.77-.19-1.56.44-1.87,1.23-.4,1.03-.76,2.11-.92,3.2-.16,1.1-.17,2.25-.04,3.35.64,5.58-2.18,9.51-6.22,12.71-1.59,1.26-2.71,2.63-3.31,4.53-.38,1.2-.33,2.26.68,3.03,1.06.81,2.34,1.28,3.56.49,1.47-.95,2.8-2.1,4.19-3.17,1.13-.87.04-2.56,1.24-3.41.31.05.7,0,.91.17,1.48,1.2,2.93,1.4,4.09-.29.9-1.31,1.71-1.12,2.74-.27.62.51,1.32.88,2.19.82.61-.04,1.39-.07,1.31.79-.06.67-.77,1.02-1.4,1.16-1.71.38-3.42.82-5.16,1.02-5.47.61-9.94,4.27-11.33,9.5-.33,1.23-.48,2.5-.63,3.77-.44,3.5-1.18,6.96-2.6,10.17-1.01,2.29-1.3,4.57-1.21,6.99.05,1.28.11,2.56.03,3.83-.12,2.07-.34,2.33-2.9,2.69-1.09.15-1.77.66-2.29,1.48-.95,1.5-1.7,3.14-1.71,4.93-.03,3.46-1.82,6.1-3.87,8.56-4.36,5.24-7.54,11.06-9.33,17.64-.46,1.69-1.09,3.33-1.68,4.98-1.56,4.36-4.13,7.9-8.27,10.19-1.39.77-2.61,1.86-4,2.65-2.43,1.37-4.42,3.15-5.8,5.58-1.09,1.92-2.74,2.93-4.83,3.63-6.52,2.19-13.05,4.29-19.97,4.78-1.11.08-2.27.26-3.32.03-2.04-.45-3.12-.66-3.09-3.44.01-.8.01-1.61-.08-2.4-.18-1.47-1.69-2.55-3.14-2.1-1.2.37-2.39.93-3.44,1.63-2.89,1.92-5.86,3.28-9.44,2.28-1.02-.29-1.96.18-2.67.76-1.38,1.12-2.82,1.41-4.48.92-1.77-.52-3.15-1.61-4.1-3.14-.67-1.08-1.08-2.31-1.6-3.47-1.14-2.52-3.11-3.99-5.79-4.57-2.85-.61-5.71-.57-8.57-.07-1.86.33-3.14,1.49-4.36,2.79-1.33,1.41-2.72,2.7-4.66,3.25-2.58.74-4.55-1.04-3.88-3.65.83-3.24,1.83-6.44,2.71-9.67.46-1.67.82-3.38,1.2-4.94Z"/>
      <path class="cls-1" d="M742.39,236.77c-.38-.44-.67-.81-.99-1.15-1.54-1.68-3.12-2.14-4.46-.71-1.75,1.86-3.68,2.37-6.01,2.03-1.32-.2-2.47.27-3.71.57-3.14.77-5.9,1.87-7.85,4.71-.87,1.26-2.74,1.73-3.45,3.23-.65,1.38-1.42,2.36-3.05,2.71-1.44.31-2.48,1.22-2.85,2.88-.48,2.18-2.09,3.6-4.05,4.45-2.69,1.16-5.01,2.72-6.95,4.95-1.11,1.26-2.09,1.31-3.34.16-1.38-1.27-2.63-2.32-4.6-1.32-.26.13-.67.13-.94.02-2.56-1.05-5.36-.82-7.95-1.47-6.37-1.58-12.84-2.3-19.65-2.71.23-3.55,1.05-6.91,1.77-10.27,1.88-8.74,3.83-17.46,5.71-26.2,2.99-13.88,5.95-27.76,8.92-41.64,2.97-13.89,5.98-27.76,8.9-41.66,2.2-10.45,4.23-20.93,6.48-31.37.49-2.3.41-4.39-.33-6.57-.92-2.72-1.79-5.47-3.18-8-1.18-2.15-1.27-4.31.04-6.37.81-1.28,1.19-2.57,1.17-4.05,0-.46.07-1.03.34-1.37,1.99-2.61,1.51-4.96-.56-7.27-1.8-2.01-1.87-4.33-.88-6.73.43-1.03.94-2.03,1.41-3.04.92-1.96,1.04-4,.54-6.08-.29-1.21-1.15-1.95-2.31-2.19-1.04-.22-1.83.38-2.35,1.28-.32.55-.58,1.13-.95,1.64-.38.53-1.31.46-1.59-.11-1.16-2.34-2.19-4.65,0-7.04,2.1-2.3,1.95-5.1.93-7.67-1.44-3.62,1.07-6.6,4.99-6.7.95-.02,1.9.16,2.85.28,1.74.23,3.47.58,5.21.73,2.61.22,5,.74,6.95,2.73,1.42,1.45,3.39,1.55,5.35,1.65,2.69.13,3.18.81,2.98,3.63-.03.47-.24.94-.23,1.41.02,1.05.6,1.78,1.47,2.31.97.59,1.87.36,2.58-.4,1.15-1.24,2.5-1.78,4.2-1.94,1.59-.15,2-1.41,1.17-2.82-.24-.41-.63-.72-.9-1.12-.16-.25-.22-.57-.32-.86,1.72-.41,4.47-.64,6.72.1,2.77.91,5.35.51,7.99-.27,1.85-.55,3.72-.85,5.67-.84,1.44,0,2.52.47,3,1.86.64,1.86,1.92,2.33,3.75,2.08,1.96-.27,3.78,0,5.22,1.68.76.88,1.93,1.04,3.11.67.76-.24,1.56-.35,2.32-.59,5.72-1.79,11.54-2.44,17.51-1.68.78.1,1.59.02,2.38-.05,1.38-.11,2.49-.63,2.76-2.17.24-1.36,1.09-1.88,2.38-1.76,2.23.21,4.12-.33,5.34-2.5,1.58.76,2.97,1.52,4.43,2.09,2.36.93,4.69,2.07,7.39,1.6.74-.13,1.64-.05,2.32.26,2.85,1.32,5.85,1.5,8.9,1.42.48-.01,1-.1,1.43.04,3.66,1.19,7.38,1.85,11.25,1.87,1.59,0,2.31,1.49,3.09,2.73,1.87,2.99,3.98,3.59,5.96,1.13,1.76-2.17,3.82-2.46,6.17-2.62.8-.05,1.59-.16,2.39-.25,1.02-.12,1.9.07,2.45,1.06.23.42.47.85.8,1.19,1.76,1.82,3.48,1.75,5.24-.24.69-.78,1.14-2.36,2.48-1.33,1.1.84-.22,1.63-.65,2.38-.73,1.28-.51,2.48.31,3.58,1.71,2.27,4.03,3.73,6.82,3.99,2.03.19,3.14.75,3.71,2.88.59,2.21,2.95,3.29,5.37,2.83,1.89-.36,3.7-1,5.24-2.24,1.68-1.36,3.52-2.13,5.77-1.78.75.12,1.6-.04,2.33-.27,1.49-.47,2.78-.49,3.91.81,1.4,1.6,3.87.41,5.28,1.87,1.3,1.34,1.82,3.39,3.8,4.11,1.47.53,2.24,1.72,2.83,3.09.25.58.55,1.17.97,1.64,1.45,1.6,2.99,2.89,5.4,1.73,1.1-.53,2.11-.38,2.75.96.71,1.49,2.19,1.76,3.67,1.8,2.54.07,4.67.96,6.32,2.93,1.23,1.46,2.88,2.01,4.7,1.98,3.11-.06,5.99.61,8.74,2.13.93.52,2.13.64,3.23.74,1.27.12,2.54.06,3.78.5,1.64.57,3.31.35,4.45-.94,2.98-3.36,6.74-3.19,10.63-2.67.95.13,1.88.36,2.8.63,3.55,1.01,7.11,1.91,10.84,1.04,2.58.75,5.32.86,7.77,2.1,1.61.81,2.18,2.29,2.6,3.83.38,1.41,1.05,2.31,2.61,2.27,1.69-.05,2.56,1.05,3.34,2.32,1.11,1.8,1.64,3.8,2.15,5.82,1.66,6.61,2.34,13.21-.66,19.65-.79,1.69-.65,3.07.78,4.28,1.64,1.39,2.71,3.02,2.94,5.27.12,1.23.8,2.44,2.03,3.11,1.8.96,2.22,2.65,2.26,4.46.1,4.01.26,8.02-2.84,11.27-.93.98-.95,2.29-.38,3.6,1.04,2.43,2.44,4.45,5.08,5.4,1.33.48,2.82.84,3.56,2.25,1.05,2.02,1.63,4.16,1.45,6.47-.13,1.55-1.24,3.11-.27,4.65.98,1.57,2.7,1.43,4.3,1.48.55.01.9.42.9.91.02,1.7.91,3.04,1.7,4.42.85,1.48.76,3.08.73,4.67-.03,1.65.15,3.17,1.41,4.41.45.44,1.01,1,1.08,1.56.34,2.68,2.21,4.49,3.47,6.66.98,1.7,1.96,3.24,3.82,4.1.98.46,1.34,1.51,1,2.46-1.9,5.35,1.35,8,5.3,10.31.27.16.59.26.84.45.68.52.53,1.2-.04,1.57-3.09,1.99-6.21,3.93-9.35,5.83-10.24,6.22-20.5,12.41-30.75,18.61-3.83,2.31-7.67,4.6-11.49,6.93-2.23,1.36-4.62,2.09-7.22,2.34-10.15.99-20.3,2.05-30.45,3.06-10.95,1.1-21.89,2.19-32.84,3.27-7.93.78-15.87,1.52-23.8,2.33-4.75.48-9.5,1.05-14.24,1.62-1.1.13-2.23.32-3.25.72-1.56.61-3.11.59-4.72.42-.95-.1-1.91-.15-2.86-.22-2.77-.22-5.01.66-6.63,3-.64.92-1.38,1.76-2.11,2.61-.85.99-1.9,1.78-3.15,2.1-2.39.63-3.94,1.04-4.87-2.08-.98-3.31-3.48-4.85-6.4-5.93-1.8-.66-3.59-1.28-5.31-2.16-1.56-.8-3.26-1.16-5.07-1.23-8.31-.32-16.5-1.7-24.72-2.79-9.96-1.32-19.94-2.5-29.91-3.73-.77-.1-1.72.12-2.12-.74-1.03-2.19-2.82-2.46-4.83-1.92-1.24.34-1.42-.55-2.13-1.09-2.04-1.54-4.75-2.11-6.55-4.11-1.43,0-2.88.16-4.28-.03-1.67-.22-2.55,1.1-3.81,1.74Z"/>
      <path class="cls-1" d="M910.9,544.76c-.91.77-1.8.09-2.72,0-2.9-.27-4.22,1.2-3.64,3.95.57,2.68,1.03,3.06,3.87,3.17.48.02.98.09,1.44,0,4.49-.97,8.06,1.35,11.7,3.31,1.73.93,2.24,2.75,1.43,4.51-1.57,3.4-5.47,3.92-7.43,1.49-2.34-2.9-5.75-4.55-8.65-6.79-1.55-1.19-3.25-2.16-5.32-1.39-2.47.92-4.53,2.37-5.74,4.8-.46.92-.27,1.86.07,2.79.6,1.64.23,3.12-.69,4.55-1.39,2.17-2.29,4.56-2.94,7.05-.83,3.22.72,5.68,3.98,6.29.78.15,1.61,0,2.39.15,3.14.57,4.69,3.82,3.19,6.64-.77,1.45-2.24,1.72-3.67,1.9-2.47.31-3.35-.41-3.82-2.95-.12-.62-.14-1.29-.42-1.84-.92-1.79-3.14-1.93-4.28-.3-.27.39-.52.81-.7,1.24-.34.82-.14,2.08-1.5,2.07-1.47-.01-2.91-1.09-3.26-2.39-.2-.76-.14-1.59-.28-2.37-.33-1.96-1.19-3.62-2.87-4.79-1.54-1.08-3.03-.97-4.26.43-2.17,2.48-2.65,5.41-2.02,8.54,1.58,7.84,7.97,12.5,16.08,11.71,3.93-.38,7.65.2,11.16,1.99,1.28.65,2.56,1.31,3.84,1.98,1.45.76,2.97,1.16,4.61,1.06.82-.05,1.61-.27,2-1.08.46-.97.17-1.85-.46-2.66-.73-.94-1.77-1.33-2.85-1.66-.98-.3-1.71-.87-2.04-1.84-.09-.27-.1-.67.04-.9.12-.19.63-.38.77-.29,1.8,1.29,3.97,1.1,5.98,1.47,1.59.3,2.19-.17,2.61-1.93.23-.94.2-1.92,1.34-2.28,1.09-.34,2.19-.42,3.28.02.67.27.94.87.97,1.52.08,1.44.04,2.88.14,4.31.25,3.91,1.77,7.02,5.32,9.08,2.06,1.19,3.97,2.68,5.82,4.21,3.5,2.89,4.43,6.69,1.41,9.98-3.03,3.3-4.47,6.75-4.59,11.05-.03.9-.59,1.81-.96,2.69-.97,2.27-2.6,3.56-5.18,3.51-3.51-.06-6.96.9-10.5.6-4.29-.37-8.59-.64-12.89-.95-1.95-.14-3.75-.78-5.47-1.67-2.12-1.09-4.28-1.41-6.44-.29-2.51,1.31-4.87,1.12-7.32-.18-.96-.51-2.1-.73-3.19-.94-1.42-.28-2.83-.58-4.07-1.35-2.32-1.44-4.7-2.69-7.41-3.28-.88-.19-1.74-.8-2.44-1.42-4.08-3.57-8.61-6.67-11.79-11.19-1.32-1.87-2.92-2.71-5.35-2.05-2,.54-4.12.53-6.1-.41-1.4-.67-1.61-2.17-.26-2.94,1.28-.72,2.62-1.26,2.77-2.98.19-2.2-.39-4.16-2.07-5.63-1.2-1.05-2.48-2.03-3.85-2.84-1.61-.95-2.77-2.1-3.04-4.03-.09-.62-.35-1.23-.6-1.82-1.05-2.4-2.29-3.23-4.88-2.42-2.69.84-4.67.14-6.49-1.75-1.48-1.54-3.28-2.47-5.33-3.06-3.93-1.13-7.24-3.33-10.12-6.19-1.81-1.8-3.7-3.54-5.36-5.48-1.97-2.29-3.96-4.61-4.73-7.69-.42-1.7-1.55-2.83-3.35-2.99-2.02-.19-3.13-1.42-3.93-3.08-1.69-3.51-4.56-5.74-8.03-7.2-3.14-1.32-5.93-3.11-8.5-5.3-2.89-2.46-6.24-3.68-9.99-4.24-7.76-1.16-14.87-4.22-20.52-9.6-4.3-4.09-8.78-6.78-14.8-6.58-1.21.04-1.81-.84-1.46-1.87.52-1.52,1.15-2.94,2.46-4.03,2.64-2.19,5.59-3.67,8.93-4.39,4.67-1.02,9.39-1.86,13.91-3.5,1.96-.71,3.84-1.48,5.49-2.85,3.15-2.62,4.14-6.02,3.65-9.88-.74-5.86-1.67-11.69-3.57-17.32-1.38-4.08-2.72-8.17-4.43-12.14-1.55-3.57-3.58-6.77-6.39-9.46-.58-.55-1.08-1.2-1.71-1.68-3.72-2.81-5.18-6.86-5.9-11.17-1.39-8.4-1.53-16.84-.58-25.31.34-3.01.33-6.06.43-9.09.06-1.76-.12-3.53.03-5.28.59-6.52-.94-12.7-2.91-18.82-.84-2.61-2.23-4.95-3.55-7.32-12.99-23.31-25.99-46.62-38.98-69.94-8.79-15.77-17.55-31.55-26.32-47.34-1.01-1.82-1.92-3.68-2.89-5.52-1.68-3.18-1.37-3.85,2.32-3.64,3.66.21,7.31.72,10.93,1.32,3.76.63,7.48,1.54,11.22,2.33.62.13,1.32.51,1.85.35,2.14-.63,3.67.22,5.12,1.65.78.76,1.77.61,2.68.14.56-.29,1.25-.52,1.62-.99,1.76-2.18,4.13-3.41,6.56-4.66,2.42-1.25,4.67-2.86,5.33-5.82.24-1.06.98-1.61,2.03-1.72,1.21-.13,2.34-.72,2.75-1.71,1.28-3.13,4.64-4.38,6.23-7.2.2-.36.8-.77,1.16-.72,3.25.43,5.95-2.18,9.27-1.56,2.01.37,3.76-.53,4.73-2.27.77.12.91.57,1.19.93,1.44,1.88,2.17,2.08,3.95,1.16.97-.5,1.67-1.58,2.94-1.44,2.12.23,4.59-.68,6.02,1.85.14.24.51.46.79.5,2.01.28,3,1.35,3.27,3.41.14,1.08,1.24,1.28,2.25.62.26-.17.42-.49.68-.67,1.39-.98,1.92-1.07,2.7.27.84,1.45,1.86,2.04,3.49,1.89,4.19-.37,8.26.73,12.38,1.16,8.24.86,16.44,2.17,24.65,3.31,5.38.75,10.76,1.41,16.22,1.5,2.67.05,5.42.48,7.78,2.06,1.07.72,2.3,1.05,3.53,1.44,2.99.95,5.62,2.38,6.35,5.84.1.46.33.9.58,1.31.85,1.43,2.38,2.11,4.09,1.71,2.35-.55,4.72-1.19,6.04-3.49,2.52-4.43,6.34-5.48,11.03-4.4.31.07.68.2.94.1,3.95-1.47,4.95,1.45,6.11,4.09,5.06,11.56,10.1,23.13,15.15,34.7,1.15,2.64,2.19,5.33,3.47,7.9.9,1.79,1.26,3.61,1.12,5.55-.27,3.72.25,7.33,1.59,10.8,1.37,3.53,1.08,7.23,1.28,10.89.07,1.21-.38,2.19-1.27,2.97-2.19,1.92-2.55,4.27-1.75,6.95.18.6.04,1.33.28,1.89,1.18,2.73,1.37,5.56,1.1,8.47-.28,3.03,1.01,5.26,3.5,6.86,1.07.69,2.22,1.29,3.25,2.03,5.42,3.9,8.79,8.95,9.8,15.75.83,5.59,1.18,11.14.44,16.7-.36,2.71-.54,5.4-.58,8.11-.04,2.41.22,4.78.64,7.15.64,3.61,1.29,7.23,1.63,10.87.23,2.53,1.22,4.59,2.73,6.51.49.63.94,1.3,1.48,1.89,1.71,1.84,2.68,4.03,2.67,6.51-.02,5.09,1.82,9.73,3.6,14.32,3.35,8.6,4.82,17.5,5.36,26.64.31,5.15,1.25,10.14,4.06,14.61.42.66.67,1.44.93,2.19.45,1.31.35,2.6-.72,3.54-1.66,1.46-2.05,3.22-1.23,5.15.46,1.09.27,1.88-.5,2.57-3.53,3.14-5.77,7.2-8.16,11.18-1.51,2.5-2.54,5.14-3.11,7.98-.69,3.47-1.67,6.82-3.58,9.85-1.85,2.93-1.58,6.11-.86,9.28.32,1.4.89,2.74,2.15,3.64.62.44,1.36.82,1.4,1.76Z"/>
      <path class="cls-1" d="M466.89,527.85c-2.67-3.6-6.59-4.35-10.57-4.7-1.86-.16-2.82-.87-3.63-2.49-1.43-2.86-3.73-4.8-7.05-5.08-1.58-.13-2.11-1-2.51-2.37-.89-3.02-2.89-4.95-6.12-5.27-1.73-.17-3.07-.97-4.06-2.25-1.5-1.95-3.4-3.39-5.43-4.67-3.13-1.97-4.63-4.78-4.67-8.39-.02-2.11-.07-4.13-1.58-5.86-.75-.87-.84-2.07-.75-3.2.33-4.25-2.28-6.85-5.3-9.05-1.79-1.3-3.86-2.26-5.91-3.14-2.93-1.27-5.95-2.33-8.92-3.51-2.85-1.12-5.54-2.53-7.54-4.92-1.74-2.08-2.68-4.31-1.17-7.02,1.26-2.27.93-4.61-.08-6.92-.51-1.17-1.01-2.35-1.37-3.57-.5-1.7-.81-3.45.31-5.07.87-1.26,1-2.66.95-4.12-.02-.8-.2-1.68.06-2.38.88-2.37.48-4.28-1.44-5.98-.65-.57-.27-1.58.75-1.75,3.42-.56,4.36-2.83,4.3-5.87-.03-1.44.07-2.9-.19-4.3-.29-1.56-.76-3.15-2.84-3.36-.85-.08-1.36-.76-1.66-1.55-1.07-2.9-3-4.84-6.07-5.57-1.7-.4-2.61-1.73-3.47-3.12-.84-1.36-1.74-2.69-3.19-3.51-.89-.5-1.85-.75-2.67,0-2.77,2.51-5.53,1.46-7.74-.49-2.56-2.26-5.96-3.07-8.39-5.44-.44-.43-1.27-.35-1.77.14-.91.89-1.86,1.77-2.58,2.8-1.1,1.58-2.52,1.86-4.19,1.31-.57-.19-1.24-.52-1.55-1-.42-.65.25-1.1.72-1.5.12-.1.29-.15.4-.26,1.2-1.28,1.42-2.36.7-3.33-.89-1.2-2.44-1.66-3.79-.69-1.86,1.35-3.68,1.76-5.82.91-1.12-.45-2.2-.13-3.25.35-2.04.92-2.38,2-1.31,4.12.22.43.5.82.69,1.26.31.74-.25,1.6-1.06,1.81-1.37.36-2.54-.07-3.58-.87-.56-.42-.72-1,0-1.51.51-.36,1.12-.65,1.5-1.11.83-.99.84-2.1.12-3.08-1.1-1.49-2.44-2.51-4.45-2.2-.63.1-1.33.37-1.88.19-2.46-.83-3.98.37-5.23,2.25-.48.72-1.09,1.37-1.93,1-1.93-.85-3.84,1.24-5.58.1-1.44-.94-2.03-2.84-3.55-3.84-.98-.64-1.56-1.62-1.68-2.79-.13-1.18-.74-2.11-1.42-2.99-1.02-1.31-1.31-2.78-1.55-4.42-.42-2.82.14-5.3,1.29-7.85,5.69-12.51,11.33-25.04,16.92-37.6,8.83-19.85,17.6-39.73,26.41-59.59,1.94-4.38,3.95-8.73,5.89-13.11.74-1.68,1.78-2.83,3.57-3.6,8.07-3.47,16.06-7.16,24.1-10.7,18.86-8.3,37.73-16.57,56.6-24.84,1.02-.45,2.07-.86,3.07-1.35,1.62-.8,3.2-.91,5.06-.65,6.95.97,13.94,1.65,20.92,2.44,9.67,1.1,19.34,2.22,29.01,3.3,5.08.57,10.17,1.03,15.25,1.6,7.14.79,14.27,1.65,21.4,2.45,1.9.21,3.82.34,5.73.47,1.44.1,2.86.22,4.22.77.87.36,1.23,1.03,1.08,1.89-1.1,6.12-1.6,12.33-2.25,18.49-1.05,9.99-2.75,19.91-3.35,29.96-.28,4.76-1.19,9.48-1.92,14.2-.23,1.48-.11,2.79.44,4.19,6.86,17.38,13.68,34.78,20.48,52.19,4.3,11.01,8.4,22.11,12.89,33.04,2.59,6.31,3.56,12.83,4.34,19.52.47,4.1.46,8.25,1.55,12.32.68,2.56.59,5.37.96,8.06,1.09,7.9,1.95,15.84,2.94,23.75.77,6.17,1.63,12.34,2.37,18.52,1.23,10.3,2.57,20.6,3.52,30.93.46,5.07,1.43,10.06,1.75,15.16.18,2.95,1.12,5.91,1.32,8.94.08,1.22-.5,1.74-1.43,2.16-1.19.55-2.45.71-3.74.68-.96-.03-1.93-.02-2.87-.18-3.41-.58-6.32.02-8.41,3.08-.33.48-1.02.75-1.58,1.03-.82.4-1.81.3-1.97-.6-.5-2.83-2.55-3.11-4.68-2.85-2.87.35-5.36-.37-7.73-1.87-.54-.34-1.18-.5-1.73-.83-2.19-1.3-4.21-1.27-6.12.57-.57.55-1.24,1.02-1.94,1.4-2.05,1.12-4.12,1.75-6.32.28-1.42-.95-2.93-1.17-4.54-.39-1.47.71-3.06.86-4.68.8-2.44-.09-4.32.94-5.76,2.86-.48.64-.97,1.27-1.48,1.89-.91,1.12-2.08,1.43-3.44.99-2.13-.7-4.27-1.28-6.51-1.57-2.7-.35-5.39-.48-8.1-.38-4.63.17-9.26.27-13.9.42-2.73.08-5.44-.1-8.11-.69-1.89-.42-3.8-.44-5.73-.42-2.17.02-3.64,1.04-4.43,3.03-.35.89-.49,1.89-.95,2.71-.85,1.51-2.21,2.29-3.99,2.08-.42-.05-.97-.32-1.15-.65-.18-.34-.15-1,.07-1.33.8-1.19,1.82-2.24,2.55-3.47,1.15-1.94.72-3.68-1.04-5.06-1.27-.99-2.1-1.07-3.47-.17-.79.51-1.5,1.14-2.43,1.86Z"/>
      <path class="cls-1" d="M660.36,254.02c-2.11-1.93-4.01-3.43-5.61-5.19-2.84-3.11-6.31-5.41-9.76-7.7-2-1.33-4.28-2.26-6.76-2.02-2.4.23-3.91-.98-5.22-2.7-.1-.13-.23-.23-.3-.38-1.63-3.54-4.65-5.47-7.95-7.25-1.99-1.07-3.75-2.43-6.17-2.16-.31.03-.69.01-.94-.14-3-1.88-6.34-1.91-9.7-1.89-.92,0-1.4-.6-1.68-1.43-.21-.64-.62-1.12-1.33-1.18-.92-.08-1.69,1.35-2.58.47-.64-.63-.83-1.69-1.39-2.44-.77-1.03-1.95-.98-3.34.02-.5.36-1,1.1-1.45,1.07-.73-.06-1.49-.53-2.1-1-.62-.48-1.04-1.22-1.63-1.74-1.12-.99-2.31-1.69-3.9-.88-1.99,1.02-4.02.8-6.03-.02-1.97-.8-3.52-.45-5.16,1.13-2.81,2.71-6.03,4.79-10.3,3.69-.44-.11-.99-.11-1.39.06-2.74,1.16-5.63,1.11-8.5,1-2.25-.09-4.2.5-5.41,2.41-2.27,3.57-5.34,3.63-9.15,3.07-7.41-1.1-14.91-1.6-22.36-2.41-6.98-.76-13.94-1.65-20.92-2.4-11.27-1.21-22.54-2.36-33.81-3.53-.95-.1-1.9-.19-2.85-.33-2.83-.44-5.63-1.08-8.54-1.02-1.1.02-2.23-.22-3.32-.45-2.58-.54-2.94-.99-2.81-3.52.07-1.27.24-2.54.37-3.82.56-5.55,1.1-11.1,1.69-16.64.49-4.6,1.08-9.19,1.58-13.78.4-3.64.73-7.3,1.13-10.94,1.19-10.93,2.04-21.9,3.48-32.81,1.04-7.9,1.5-15.88,2.33-23.82.86-8.25,2.09-16.47,2.7-24.74.81-10.97,2.67-21.82,3.31-32.81.22-3.79.87-7.59,1.25-11.4.93-9.53,2.02-19.04,3.03-28.57.19-1.74.23-3.51.95-5.15.28-.64.79-1.06,1.49-.73,1.01.48,1.99,1.03,2.94,1.62,3.94,2.44,7.89,4.87,11.78,7.39,2.05,1.33,4.1,2.44,6.66,2.23,1.74-.14,3.11.53,3.87,2.22.53,1.18,1.36,2.14,2.37,2.97,1.98,1.61,4.08,2.34,6.66,1.5,2.42-.8,4.93-1.31,7.36-2.09,1.65-.53,1.86-2.29.51-3.35-1.61-1.26-3.39-1.77-5.39-1.14-1.18.37-2.32,1.17-3.83.17,3.09-1.52,6.15-1.8,9.32-1.18.93.18,1.85.52,2.73.9,1.81.79,3.25.39,4.89-.72,3.35-2.28,7.1-1.94,10.13.6,1.36,1.14,2.44,2.51,3.3,4.08,1.2,2.16,3.05,3.65,5.17,4.88,2.08,1.2,4.29,1.11,6.52.68.96-.18,1.71-.83,2.3-1.62.68-.91.32-2.49-.75-2.83-.9-.29-1.89-.32-2.8-.6-.86-.26-1.25-.99-1.14-1.87.11-.89.69-1.39,1.62-1.42,1.65-.06,3.12.58,4.63,1.11,1.49.53,2.93,1.16,4.62.71,1.34-.35,2.58.19,3.44,1.23,1.63,1.96,3.82,2.49,6.07,2.01,4.13-.88,8.27-.64,12.41-.65,1.55,0,2.77-.4,3.78-1.61,1.14-1.36,2.48-2.52,4.25-3,1.87-.5,3.77-.83,5.58.23,1,.58,2.1.95,3.21.83,2.45-.26,4.77-.02,7.01,1.04,1.37.65,2.52-.04,3.53-.82,1.53-1.17,2.97-2.37,4.95-2.78,1.91-.4,3.53-.32,4.51,1.61,1.59,3.13,4.47,3.35,7.39,3.11,2.05-.17,4.07-.8,6.11-1.2,1.99-.39,3.93-.15,5.32,1.39,2.02,2.24,4.48,2.16,7.07,1.72.94-.16,1.88-.39,2.8-.67,2.23-.68,4.45-.68,6.56.3,1.83.85,3.74,1,5.63.73,3.28-.46,6.35.1,9.35,1.38,1.03.44,2.09.81,3.12,1.22,1.53.62,3.08.76,4.68.25.91-.29,1.85-.57,2.79-.63,2.12-.15,3.61,1.08,4.06,3.25.13.62.08,1.27.16,1.91.32,2.46,1.55,4,4.1,4.61,2.7.66,3.85,3.53,2.55,5.93-.46.84-1.12,1.56-1.59,2.39-1.81,3.17-1.11,7.01,1.67,9.51.82.74,1.8.79,2.53,0,.64-.69,1.12-1.52,1.68-2.28.31-.41.82-.63,1.23-.38.35.21.67.69.76,1.09.2.94.16,1.91-.3,2.81-.36.71-.71,1.43-1.05,2.16-1.81,3.87-2.27,7.63.75,11.2.88,1.04,1.17,2.27.39,3.55-.51.83-.93,1.72-.86,2.7.13,1.71-.65,3.07-1.48,4.45-1.25,2.09-1.25,4.17-.1,6.36,1.33,2.54,2.37,5.22,3.26,7.97.78,2.39.91,4.7.42,7.07-1.4,6.72-2.87,13.42-4.28,20.14-.82,3.9-1.53,7.83-2.35,11.74-.85,4.06-1.76,8.1-2.64,12.16-1.59,7.32-3.17,14.64-4.75,21.96-1.14,5.31-2.29,10.61-3.42,15.93-2.44,11.55-4.88,23.09-7.3,34.65-1.99,9.51-3.91,19.03-5.92,28.54-.32,1.53-.95,2.99-1.51,4.74Z"/>
      <path class="cls-1" d="M724.06,526.81c-1.74-.42-3.13-.73-4.51-1.08-3.34-.85-6.54-.97-9.73.82-3.19,1.79-6.72,1.88-10.27,1.19-1.41-.27-2.81-.6-4.22-.93-3.01-.69-6.02-.65-9.04-.09-2.83.52-5.66,1-8.49,1.54-2.99.57-5.91,1.36-8.64,2.78-2.83,1.47-5.72,2.86-8.55,4.34-1.73.9-3.46,1.63-5.49,1.17-1.86-.43-3.44.12-4.83,1.42-.7.65-1.51,1.18-2.28,1.75-1.47,1.08-2.96,1.84-4.86.96-1.09-.51-2.21-.13-3.21.46-1.38.81-2.69,1.72-4.09,2.49-1.7.93-3.08.39-3.5-1.6-.37-1.75-1.04-2.58-2.9-2.17-1.11.24-1.91-.45-2.32-1.32-1.33-2.81-3.83-4.21-6.42-5.49-3.58-1.77-7.2-3.46-10.78-5.23-1.01-.5-2-.99-3.15-1.06-1.21-.07-2.1-.57-2.55-1.8-.97-2.59-3.09-3.01-5.49-2.7-.94.12-1.84.51-2.77.72-1.18.26-1.74-.18-1.87-1.48-.35-3.49-.84-6.98-.95-10.49-.15-4.63-.35-9.17-1.86-13.64-.75-2.22-.7-4.71-.98-7.09-1.45-12.37-2.83-24.74-4.36-37.1-1.28-10.29-2.79-20.55-4.09-30.84-.9-7.12-1.66-14.26-2.38-21.41-.65-6.42-2.7-12.41-5.04-18.37-8-20.36-15.88-40.77-23.82-61.15-2.67-6.84-5.35-13.67-8.09-20.49-.79-1.96-1.08-3.77-.68-5.98.73-4.06.76-8.25,1.17-12.37.37-3.65.84-7.29,1.29-10.93.94-7.59,1.91-15.19,2.86-22.78.65-5.22,1.44-10.43,1.89-15.67.29-3.33,2.9-4.85,4.79-6.87,1.5-1.59,3.74-1.72,5.86-1.16,1.15.31,2.18.06,3.28-.16,1.56-.32,3.2-.76,4.72-.55,3.88.54,6.88-1.15,9.54-3.48,1.71-1.5,3.16-2.46,5.51-1.43,1.1.48,2.52.38,3.78.35,2.86-.07,4.13.44,6.25,2.1,1.38,1.08,3.04,1.88,4.86.94.97-.5,1.73-.77,2.37.38.96,1.72,2.37,2.53,4.37,2.13,1.94,1.47,4.16,1.21,6.39,1.11,1.08-.05,2.29.14,3.26.6,1.91.91,3.82,1.44,5.95,1.55,1.04.05,2.07.75,3.05,1.28,1.26.67,2.44,1.52,3.71,2.18,1.61.84,2.84,2.02,3.78,3.56.58.95,1.22,1.88,1.92,2.74,1.25,1.53,2.65,2.65,4.89,2.46,3.17-.27,5.85,1.07,8.45,2.82,7.43,5,13.32,11.33,17.64,19.22,7.97,14.57,16.1,29.06,24.15,43.6,8.35,15.09,16.66,30.21,25.03,45.3,6.12,11.04,12.37,22.01,18.44,33.08,3.89,7.1,6.03,14.66,6.11,22.88.07,8.01-.66,15.95-1.18,23.91-.5,7.71.44,15.28,2.43,22.73.59,2.21,1.8,4.09,3.41,5.7.68.68,1.44,1.27,2.14,1.92,4.19,3.89,6.96,8.64,8.9,13.99,2.24,6.16,4.44,12.33,5.48,18.82.43,2.67.72,5.39.78,8.09.09,4.3-1.97,7.22-6.02,8.82-4.02,1.59-8.19,2.69-12.45,3.45-3.31.59-6.49,1.57-9.52,3.08-2.85,1.42-4.96,3.43-6.16,6.39-.23.58-.5,1.15-.92,2.12Z"/>
      <path class="cls-1" d="M1593.18,402.34c-6.27,6.19-13.1,9.84-21.88,9.84-8.57,0-16.41-2.12-23.77-6.35-1.39-.8-2.8-1.55-4.15-2.39-1.56-.98-3.07-1.61-4.9-.56-1.21.69-2.49.22-3.68-.32-7.14-3.22-14.3-6.4-21.11-10.28-2.51-1.43-4.91-3.07-6.82-5.24-2.66-3.01-6.09-4.7-9.78-5.79-8.17-2.41-16.51-4.14-25.05-2.86-4.99.75-9.41.18-13.78-2.37-2.18-1.27-4.75-1.8-7.41-1.44-1.77.24-3.51-.08-5.1-.98-2-1.13-4.28-1.21-6.45-1.69-1.59-.35-3.17-.11-4.7.48-2.23.86-4.52,1.61-6.73,2.52-2.25.93-4.6,1.32-6.99,1.52-2.66.22-5.07-.46-7.09-2.27-.24-.21-.46-.45-.69-.67-4.84-4.53-10.55-4.79-16.58-3.34-2.51.6-4.78,1.82-7.02,3.07-6.52,3.64-13.04,3.43-19.79.55-8.1-3.45-15.94-7.38-23.69-11.54-2.83-1.52-5.41-3.41-7.83-5.5-3.31-2.86-7.06-4.96-11.19-6.35-4.85-1.63-9.67-3.28-14.2-5.72-1.94-1.05-4.19-1.53-6.32-2.22-3.95-1.29-7.97-2.38-11.84-3.86-2.97-1.13-5.93-2.45-8.2-4.83-2.18-2.28-4.96-1.75-7.65-1.64-.87.04-1.34.78-1.88,1.36-3.95,4.19-8.83,6.09-14.57,6.06-4.18-.02-8.28-.28-12.25-1.8-1.74-.66-3.09-1.58-3.94-3.25-.43-.85-.9-1.7-1.45-2.48-1.87-2.62-3.86-5.12-7.25-5.89-.46-.1-.89-.36-1.32-.57-3.03-1.43-4.81-3.47-4.16-7.16.53-3.02.09-6.06-1-8.96-1.28-3.42-1.57-7.2-3.85-10.26-.64-.86-.05-1.81.21-2.73,1.78-6.13,3.49-12.29,5.24-18.43,2.23-7.83,4.43-15.67,6.73-23.48,2.07-7.05,4.31-14.04,6.39-21.08,3.85-13,7.64-26.02,11.44-39.03.72-2.46.73-2.58,3.24-2.3,2.1.23,4.14-.07,6.21-.25,4.61-.41,8.03,1.51,10.31,5.5.4.69.8,1.39,1.1,2.13.98,2.47,2.49,4.44,4.91,5.66.57.28,1.03.76,1.58,1.08,1.62.96,2.61,2.29,2.81,4.21.42,4.13,3.06,6.37,6.55,8.17,4.11,2.12,8.5,2.81,12.95,3.12,4.78.33,9.59.27,14.38.25,3.23-.02,6.33-.71,9.17-2.41,1.49-.89,3-1.85,4.86-1.9,1.79-.05,2.91.57,2.98,2.3.13,3.51,1.96,5.59,5.03,6.87,4.58,1.91,6.98,5.96,9.45,9.87,1.29,2.04,2.67,3.95,4.42,5.63,4.27,4.11,9.47,5.04,15.1,4.47,2.2-.23,3.82-1.48,5.17-3.18.89-1.12,1.83-2.21,2.84-3.22.27-.27.9-.33,1.33-.26.73.12.93.81,1.08,1.42.07.29-.04.64-.13.94-.35,1.22-.14,2.26,1.06,2.85,1.17.58,2.05,0,3-.76,1.16-.93,1.45-.76,1.96.58.06.15.04.32.1.47.75,1.97,2.14,3.27,3.82,2.68,2.02-.71,3.69-.25,5.53.26.74.21,1.59.1,2.39.04.46-.03,1.25-.18,1.3-.41.65-2.77,3.36-2.4,5.09-3.51.5-.32.78-.98,1.16-1.49,1.19-1.61,1.28-1.77,3.01-.79,1.54.88,2.88.89,4.53.41,4.91-1.42,10.08.8,12.58,5.23,2.53,4.47,5.28,8.77,9.49,11.9,1.02.76,2.13,1.39,3.22,2.05,2.38,1.46,4.81.78,6.96-1.2.12-.11.25-.22.32-.35,2-3.67,4.99-3.37,8.24-2.05.74.3,1.54.48,2.24.85,2.33,1.21,4.8,1.73,7.41,1.53,3.06-.24,5.58.74,7.82,2.89,1.36,1.31,3.04,2.33,4.7,3.26,1.5.84,3.09.85,4.36-.6.54-.62,1.11-1.2,1.98-1.16.79.03,1.65.04,2.34.36.62.28.28,1.11.38,1.71.39,2.43,2.95,4.45,5.43,4.43.84,0,1.55-.3,1.97-1.1.37-.7.65-1.48,1.15-2.08,1.03-1.21,2.91-.95,3.58.43.21.43.35.89.52,1.34.93,2.51.97,2.6,3.23,1.76,1.09-.41,2.13-.8,3.24-.44,3.03,1,6.06,2,9.03,3.15,1.28.49,2.07,1.5,1.55,3.06-.53,1.57.08,2.82,1.18,3.88,1.18,1.14,2.58,1.9,4.26,1.87.79-.01,1.59-.43,2.36-.36,4.21.38,6.84,1.24,6.79,6.2-.05,4.5,1.75,8.01,4.13,11.47,1.34,1.94,2.78,3.34,5.55,2.56,1.75-.5,2.51.25,3.31,1.97.48,1.04.74,2.11.72,3.25-.01,1.28-.03,2.56-.06,3.84-.13,5.42,1.64,10.01,5.94,13.48,1.61,1.31,3.16,2.71,4.85,3.9,5.1,3.61,7.69,8.84,9.53,14.56.39,1.21.71,2.45,1.03,3.69,1.65,6.31,5.65,10.62,11.46,13.35.72.34,1.51.52,2.23.86.76.36,1.26.98,1.28,1.86.02.8.15,1.63-.02,2.39-.26,1.24-.58,2.5-1.13,3.62-.56,1.15-1.92.94-2.96,1.24-3.13.92-4.32,3.19-3.36,6.21.31.97.9,1.68,1.71,2.23,3.28,2.26,5.53,5.26,6.75,9.06.52,1.61,1.7,2.69,3.08,3.55,1.56.98,2.58,2.3,3.17,4.06.76,2.29,2.39,4.05,4.29,5.81Z"/>
      <path class="cls-1" d="M362.14,220.57c-1.55,1.38-3.37,2.49-3.45,4.9-.08,2.45-.18,4.76,2,6.53.7.57,1.17,1.51,1.55,2.36.5,1.11.09,2.3-.84,2.99-.74.56-1.46.46-2.2-.03-.4-.26-.83-.51-1.28-.64-1.36-.42-2.67-.03-3.35,1.12-2.5,4.23-3.62,8.81-3.36,13.73.07,1.23.73,2.09,1.67,2.76,5.27,3.78,4.23,3.47,2.02,8.54-5.16,11.87-10.65,23.59-15.95,35.4-2.88,6.41-5.63,12.88-8.47,19.31-4.46,10.08-8.93,20.16-13.42,30.23-3.39,7.59-6.81,15.16-10.22,22.73-.33.73-.61,1.48-.95,2.2-1.4,2.98-1.8,3.15-4.17.52-1.1-1.22-2.84-.73-3.64-1.91-.87-1.29-2.05-1.99-3.43-2.43-1.22-.4-1.76-1.28-2.01-2.44-.3-1.4,0-1.95,1.56-2.81.41-.22.88-.4,1.2-.72.76-.73,1.13-2.58.35-3.05-2.78-1.68-3.18-5.52-6.37-6.77-.96-.38-1.43-1.14-1.41-2.26.04-2.74-1.07-4.93-3.21-6.66-.59-.48-1.01-1.24-1.35-1.95-.91-1.89-2.14-2.68-4.22-1.65-.79.39-1.54-.02-2.04-.77-1.21-1.84-2.68-2.09-4.41-.72-.88.7-1.52.53-2.48-.14-2.11-1.46-2.97-4.12-5.34-5.27-.26-.13-.56-.47-.58-.73-.23-3.33-2.83-3.87-5.29-4.64-.91-.28-1.76-.75-2.61-1.2-1.52-.8-2.32-1.96-2.42-3.8-.24-4.2-1.23-8.17-3.78-11.68-2.01-2.77-2.2-5.92-1.25-9.16.27-.92.59-1.83.92-2.72.65-1.74.7-3.46-.29-5.07-1.2-1.95-1.84-4.04-1.95-6.34-.04-.77-.33-1.58-.7-2.28-1.29-2.44-2.19-4.95-2.19-7.76,0-1.14-.5-2.19-1.38-2.97-1.74-1.56-2.85-3.38-2.85-5.83,0-1.38-.82-2.35-2.13-2.91-4.89-2.1-9.22-5.07-13.34-8.4-2.03-1.64-4.35-2.59-6.89-3.2-3.16-.76-6.35-.74-9.53-.61-2.04.08-3.08,1.77-2.44,3.72.29.9.79,1.73,1.11,2.62.06.17-.25.5-.44.71-.08.08-.36.11-.45.04-1.09-.92-2.35-1.72-3.21-2.83-2.42-3.1-5.8-3.67-9.08-2.77-3.35.92-6.33.66-9.3-.7-2.27-1.04-4.34-.7-6.45.29-.43.2-.89.4-1.26.69-3.83,3.02-7.64,2.66-11.47,0-2.06-1.43-4.13-1.44-6.26-.04-.79.52-1.7.88-2.6,1.19-2.18.78-2.52.58-3.44-1.7-1.14-2.84-2.33-3.31-5.14-2.01-.58.27-1.12.62-1.72.86-4.23,1.66-8.3,2.03-12.2-1.02-2.14-1.68-2.99-1.45-4.92.46-1.04,1.03-1.95,2.15-2.5,3.49-.77,1.89-2.29,2.59-4.14,2.74-1.27.1-2.56.16-3.83.05-1.88-.16-3.45.4-4.86,1.6-.85.72-1.73,1.43-2.66,2.04-1.74,1.16-3.55,2.21-5.77,2.01-1.76-.16-3.06.61-4.18,1.88-.85.96-1.81,1.79-3,2.35-.89.42-1.78.88-2.74.61-1.9-.54-3.74-.5-5.65-.03-1.09.27-1.92-.45-1.99-1.54-.1-1.8-.71-3.02-2.57-3.55-.97-.28-1.61-1.11-1.51-2.2.2-2.22-1.2-3.14-2.95-3.8-.75-.28-1.52-.5-2.28-.72-1.74-.5-2.46-1.54-2.62-3.46-.24-3.02-.96-3.53-3.83-3.83-.79-.08-1.6-.12-2.4-.11-1.27,0-2.16-.4-2.37-1.79-.07-.46-.25-.94-.5-1.32-.94-1.41-2.94-1.63-4.2-.47-.35.32-.64.72-.88,1.13-1.21,2.05-2.77,2.92-5.2,1.97-1.66-.65-3.52-.69-5.2-.12-2.95,1-5.68-.02-8.45-.64-1.96-.44-3.29-1.8-4.47-3.41-1.41-1.92-2.85-3.87-5.35-4.61-1.17-.35-1.66-1.42-2.14-2.45-1.16-2.47-3.18-3.92-5.69-4.83-1.95-.71-3.89-1.48-5.77-2.36-3.68-1.73-7.39-2.73-11.58-2.24-3.74.44-6.47-2.21-6.51-5.98-.04-2.9-.32-5.71-1.18-8.49-1.09-3.51.08-6.96.55-10.41.17-1.28,1.34-2.15,2.41-2.88,1.45-.99,2.9-2.01,4.44-2.84,3.78-2.05,6.48-5.14,8.71-8.71.42-.68.76-1.41,1.21-2.07,1.99-2.9,2.6-6.06,2.34-9.56-.49-6.49-.06-5.63,5.2-5.47,4.25.13,8.57.61,12.81,1.5,3.26.68,6.64.82,9.97,1.16,4.29.44,8.62.62,12.86,1.31,4.73.77,9.57.51,14.26,1.65,2.17.52,4.05-.25,5.58-1.96,7.35-8.21,14.72-16.4,22.11-24.58,3.21-3.56,6.5-7.05,9.73-10.59.92-1,1.99-1.56,3.37-1.52.64.02,1.28,0,1.92-.01,19.19-.54,38.38-.2,57.57-.46,8.79-.12,17.58-.19,26.37-.34,3.17-.05,5.82.76,8.53,2.45,15.86,9.92,31.5,20.16,47.1,30.48,1.96,1.29,3.94,1.99,6.24,2.04,4.47.1,8.94.32,13.42.37,13.27.16,26.54.25,39.81.38,5.76.06,11.51.12,17.27.22,2.83.05,3.29.68,2.75,3.54-.03.16-.02.33-.09.47-2.49,4.82-.15,8.47,2.95,11.87.72.8.74,1.69.99,2.59.51,1.87,1.12,3.72,3.48,4.07,1.07.16,1.62.95,2.03,1.85.86,1.89,2.09,3.12,4.41,2.97,1.18-.07,2.11.62,2.6,1.78.31.74.62,1.48,1.02,2.17.85,1.48,1.94,2.57,3.88,1.96.29-.09.66-.1.94,0,.25.09.58.37.6.59.03.26-.17.63-.38.82-.8.7-1.83.34-2.75.49-1.63.26-2.14.99-2.06,2.58.07,1.22.6,2.13,1.47,2.9,1.09.96,2.27,1.76,3.67,2.2.92.29,1.7.79,2.39,1.77Z"/>
      <path class="cls-1" d="M1314.25,348.4c.33-.07.68-.26.93-.17,4.67,1.65,9.34,3.29,13.97,5.02,3.02,1.13,5.78,2.72,8.13,4.97,2.21,2.13,4.77,3.77,7.44,5.22,8.15,4.42,16.42,8.57,24.93,12.28,4.79,2.09,9.64,1.96,14.59,1.6,2.12-.15,3.91-1.36,5.76-2.29,3.14-1.58,6.19-3.32,9.78-3.79,4.15-.54,7.92.16,11.24,2.83.25.2.56.34.77.57,4.67,4.99,10.21,4.35,15.92,2.44,1.96-.65,3.91-1.35,5.82-2.14,3.91-1.62,7.82-1.63,11.53.31,1.95,1.01,3.87,1.46,5.98,1.31,3.32-.24,6.33.67,9.15,2.33,3.01,1.77,6.18,2.07,9.63,1.61,6.84-.93,13.7-1.07,20.43.95,1.84.55,3.73.89,5.58,1.39,3.59.98,6.85,2.5,9.56,5.2,3.18,3.18,6.85,5.76,10.92,7.7,5.91,2.82,11.84,5.62,17.75,8.44,1.78.85,3.55,1.53,5.46.4.96-.56,1.86-.25,2.71.22,2.24,1.23,4.48,2.47,6.69,3.75,6.23,3.61,13.09,5.35,20.13,5.69,8.98.43,16.95-2.56,23.48-8.94.46-.45.9-.92,1.38-1.33,1.07-.93,1.81-.86,2.88.2,1.53,1.51,2.65,3.35,2.82,5.43.25,2.95,1.93,4.56,4.25,5.93,1.22.72,2.37,1.66,3.34,2.69,2.73,2.92,5.5,5.79,8.81,8.07,1.08.74,1.25,1.72,1.07,2.93-.32,2.25-.89,4.43-2.21,6.27-1.55,2.15-2.63,4.39-2.27,7.1.41,3.1,1.83,5.78,3.73,8.18,2.37,2.99,5.67,4.6,9.21,5.77,1.26.41,2.58.49,3.72-.24,2.88-1.84,6.25-.96,9.32-1.76,1.25-.32,2.39.68,3.26,1.69,1.07,1.25,1.66,2.75,2.15,4.26,1.03,3.18,2.81,5.33,6.43,5.41,1.19.03,1.63.93,1.6,1.97-.04,1.43-.2,2.87-.33,4.3-.16,1.75-.39,3.49-.5,5.24-.09,1.45-.2,2.88-.81,4.21-.56,1.24-1.42,2.1-2.89,2.19-3.05.18-6.08.04-9.06-.61-.75-.16-1.63-.49-2.1-1.04-1.71-2-3.8-1.84-6.12-1.62-2.54.24-5.1.26-7.63.7-3.11.55-5.28,2.09-6.23,5.21-.27.91-.69,1.79-1.15,2.62-2.04,3.63-2.32,3.8-6.41,3.06-1.36-.25-2.6-.26-3.55.77-1.27,1.38-2.77,1.4-4.41,1.09-.31-.06-.62-.19-.94-.21-2.29-.1-3.46.69-4.34,2.89-1.71,4.28-1.99,4.5-6.66,4.25-4.81-.26-9.59-.33-14.27,1.08-2.61.79-5.17,1.64-7.32,3.44-1.47,1.24-3.09,2.23-5.1,2.48-1.7.21-2.89,1.27-3.72,2.74-.39.7-.79,1.39-1.14,2.11-.83,1.74-2.2,2.75-4.1,2.91-1.54.13-3.31,1.49-4.57.27-1.44-1.4-.34-3.35.21-4.93.94-2.71,2.16-5.32,3.21-8,.64-1.63,1.35-3.26,1.73-4.96.5-2.26-.73-3.73-2.99-3.93-3.3-.29-6.33.64-9.2,2.15-2.17,1.14-2.63,3.15-2.27,5.34.5,3.02.46,6.06.42,9.09-.02,1.84-.07,1.85-2.45,2.34-.64.13-1.24.29-1.6.89-.16.27-.28.57-.43.86-.85,1.67-1.15,4.01-3.42,4.25-2.94.31-5.79.74-8.68-1.35-6.8-4.94-14.43-7.96-22.88-9.15-4.95-.7-9.88-.71-14.81-.75-6.54-.06-13.11-.34-19.61.79-4.09.71-8.18,1.4-12.23,2.3-4.55,1.01-9.08,1.86-13.75,1.02-2.71-.49-5.11.4-7.22,1.92-2.43,1.76-4.97,2.83-8.02,2.55-1.67-.15-3.12.59-4.48,1.46-5.37,3.46-10.98,6.58-15.95,10.63-1.79,1.46-3.78,2.22-6.07,2.6-3.02.5-6.04.57-9.07.6-1.29.01-2.51-.32-3.72-.82-1.94-.81-3.28-2.04-3.22-4.27.05-2.29-1.29-3.78-2.6-5.45-4.31-5.49-10.47-7.03-16.82-8.18-1.06-.19-2.22.08-3.32.26-5.35.91-10.71,1.79-16.04,2.85-2.84.56-5.34.14-7.78-1.41-4.12-2.61-7.63-5.77-9.78-10.24-.78-1.61-.42-2.15,1.47-2.4,2.52-.33,3.34-.96,3.71-2.87.33-1.67-.04-2.88-1.65-3.53-1.46-.59-2.39-1.38-2.96-2.84-1.1-2.83-3.86-3.03-6.28-3.66-.62-.16-1.15.42-1.53.98-.42.62-.41,1.2.12,1.71.91.89,1.88,1.72,2.79,2.62.18.18.3.62.2.83-.23.51-.74.47-1.21.35-1.12-.29-2.07-.84-2.76-1.78-2.96-4.05-6.75-7.24-10.74-10.2-1.72-1.28-2.95-2.89-3.8-4.83-.45-1.02-1.1-1.98-1.4-3.04-1.39-4.82-4.42-8.43-8.17-11.56-.74-.61-1.42-1.3-2.07-2-1.38-1.47-1.44-3.25.12-4.54,1.58-1.31,3.16-2.73,5.16-3.41,1.93-.66,3.15-1.97,4.15-3.74,2.26-4.02,3.48-8.09,2.54-12.81-.97-4.88,1.07-6.94,5.45-9.57,2.32-1.4,5.04-2.1,7.79-2.18,1.8-.05,3.48-.49,5.13-1.1,2.35-.87,4.07-2.5,5.16-4.75.58-1.19.81-2.47.35-3.73-.75-2.1-1.64-4.17-3.13-5.88-1.08-1.24-2.24-2.11-4.15-1.7-1.33.29-2.16-.5-2.3-1.78-.31-2.86-.5-5.68.59-8.5.79-2.04,1.27-4.14.67-6.51-.53-2.08-1.46-3.52-3.31-4.36-2.35-1.07-4.33-2.67-6.45-4.08-1.14-.76-1.65-1.76-2.04-3.07-1.49-5.14-.66-9.76,2.5-14.06,4.74-6.46,3.98-6.45,4.07-13.31.02-1.58-.3-3.2.34-4.73Z"/>
      <path class="cls-1" d="M1177.3,160.55c.27.69-.11,1.2-.36,1.78-.95,2.23-1.04,2.48.75,3.55,1.56.93,2.35,2.18,2.59,3.78.3,1.97,1.23,3.59,2.26,5.23,1.02,1.62,2.08,3.25,2.83,5,1.72,4.02,4.89,6.64,8.32,9.04.64.45,1.41.88,2.16.99,4.62.66,9.34,1.19,13.55-1.35,2.98-1.79,6.21-2.53,9.48-3.16,3.17-.61,6.33-.35,9.41.92,2.2.9,4.53,1.54,6.84,2.11,3.18.79,6.34.82,9.24-1.05,2.23-1.44,4.55-1.31,6.89-.44.73.27,1.47.65,2.06,1.14,2.08,1.75,3.05,3.52,1.99,6.6-3.01,8.73-5.82,17.56-8.17,26.49-2.6,9.88-5.59,19.63-8.38,29.44-3.45,12.13-7.05,24.22-10.57,36.33-.58,1.99-1.07,4-1.63,6-.26.92-.52,1.84-.85,2.74-.95,2.61-1.88,3.06-4.28,2.02-3.24-1.4-6.34-3.08-9.18-5.17-5.8-4.25-11.63-8.46-16.87-13.4-1.95-1.84-3.53-4.1-5.16-6.26-1.83-2.44-3.82-4.71-6.14-6.7-1.12-.96-2.38-1.75-3.84-1.83-3.87-.21-7.63.41-11.2,1.99-1.15.51-1.88,1.53-1.6,2.68.9,3.64-.95,6.13-3.21,8.53-.54.58-.92,1.32-1.45,1.9-1,1.1-2.37,1.07-3.19-.29-1.83-3.04-4.69-4.74-7.71-6.22-1.61-.79-2.96-1.76-4.09-3.2-1.75-2.22-3.94-2.46-6.29-1.01-1.91,1.18-2.89,2.97-3.19,5.11-.17,1.26-.23,2.57-.1,3.83.2,2.04-.68,3.25-2.4,4.24-2.05,1.18-4.19,1.47-6.47,1.28-.87-.07-1.45-.4-1.76-1.3-.35-1.05-.73-2.14-1.34-3.05-1.26-1.85-3.75-2.01-5.43-.49-.35.32-.75.65-.97,1.06-1.05,1.97-2.72,2-4.52,1.47-2.36-.7-4.4-1.88-5.64-4.15-2.22-4.06-4.52-8.08-6.68-12.17-1.43-2.71-2.89-5.33-5.65-6.95-1.28-.75-2.17-1.94-2.63-3.33-.66-1.94-1.92-3.18-3.7-4.17-2.88-1.62-3.63-4.21-2.97-7.38.52-2.48,1.55-4.9,1.17-7.52-.16-1.1-.18-2.24-.48-3.3-.5-1.81-1.68-2.98-3.59-3.48-2.46-.64-5-.96-7.42-1.87-1.63-.61-2.73-1.53-3.53-3-1.61-2.98-2.56-6.17-3.26-9.47-.53-2.5-1.14-4.98-1.77-7.45-.51-2.01-1.75-3.27-3.81-3.9-2.28-.7-4.51-1.6-6.71-2.54-1.45-.62-2.81-.63-4.12.18-3.15,1.94-6.6,2.24-10.17,2.05-4.06-.23-8.08.25-11.61,2.25-3.35,1.9-6.09,1.11-8.82-.97-.88-.67-1.7-1.46-2.45-2.28-.78-.84-1.31-1.81-.84-3.05.17-.44.16-.94.25-1.41.46-2.59-.11-4.42-2.62-6.02-2.51-1.6-3.83-4.54-5.12-7.26-.27-.57-.17-1.4-.56-1.81-2.4-2.53-2.86-5.58-2.76-8.87.02-.74-.45-1.5-.73-2.23-.33-.89-.81-1.74-1.03-2.65-.28-1.19.3-2.66-.97-3.53-1.03-.71-2.18.11-3.28-.01-.99-.11-1.85-1.08-1.45-2.05,1.17-2.79.15-5.33-.57-7.93-.56-2.01-1.78-3.35-3.8-3.95-.61-.18-1.2-.45-1.81-.65-2.07-.68-2.82-2.5-3.57-4.26-.61-1.43.52-2.4,1.16-3.45,2.6-4.23,2.28-8.86,1.85-13.49-.1-1.11-.72-2.13-1.76-2.74-.84-.5-1.78-1.06-1.96-2.01-.53-2.78-1.93-4.98-3.91-6.93-.6-.59-.43-1.48-.12-2.26,3.37-8.37,2.1-16.61-.78-24.78-.87-2.47-1.95-4.77-5.04-5.11-1.09-.12-1.69-1.02-1.89-1.96-.73-3.37-3.32-4.44-6.18-5.22-.62-.17-1.26-.21-1.88-.38-1.47-.41-1.94-1.22-1.72-2.9.21-1.59.95-2.34,2.44-2.44,1.29-.09,2.53.07,3.74.62,2.64,1.2,5.2,1.69,7.28-1.12.51-.69,1.4-.61,2.21-.66,2.01-.14,3.75.63,5.49,1.47,2.05.99,3.99.92,5.81-.59.61-.51,1.27-.99,1.99-1.31,1.08-.5,2.24-.51,3.1.44,2.01,2.21,4.98,3.39,6.41,6.28.52,1.04,1.81,1.79,2.88,2.45,3.08,1.91,4.41,1.47,5.93-1.78.2-.43.35-.9.55-1.33.41-.88,1.12-1.01,1.98-.8,1.44.36,2.68,1.11,3.63,2.22,1.15,1.34,2.57,1.8,4.26,1.63,2.68-.27,4.93.64,7.16,2.12,2.6,1.71,5.47,2.52,8.64,1.19,2.76-1.15,5.69-.43,8.55-.37,1.2.03,2.02.88,2.99,1.42,1.39.78,2.76,1.65,4.23,2.22,1.96.76,3.38.19,4.47-1.62.66-1.09,1.17-2.27,1.72-3.42q1.8-3.78,5.73-3.38c.48.05.95.14,1.43.2,1.57.18,2.55-.3,3.42-1.86,1.21-2.17,3.74-2.8,5.9-3.75.33-.15.99.07,1.3.34,3.61,3.09,7.99,3.75,12.51,4.08,2.39.17,4.77.5,7.13.88,1.41.23,2.79.7,4.18,1.07,1.61.43,2.44,1.66,2.55,3.15.22,3.02.41,6.06-.23,9.08-.28,1.29-.85,2.41-1.69,3.39-2.16,2.5-2.73,5.32-1.74,8.46.43,1.37.71,2.79,1.25,4.11,1.38,3.36,3.49,4.6,7.17,3.89,1.63-.31,2.82-.11,3.86,1.09,1.37,1.58,2.91,1.96,5.08,1.78,3.63-.3,8.74,3.64,9.98,7.09.05.15.09.31.12.47.57,3.17,1.89,5.39,5.69,4.9,1.05-.13,1.71.73,1.89,1.8.2,1.15.59,2.11,1.78,2.63,1.99.85,3.59.8,5.02-1.16.88-1.2,1.89-.91,2.48.5.56,1.32.98,2.7,1.45,4.05.9,2.56,2.56,4.33,5.16,5.3,2.69,1,5.33,2.15,7.96,3.32,1.05.47,2.09.71,3.23.78,1.27.08,2.54.27,3.8.44,1.13.15,1.62.94,1.73,1.97.08.79.09,1.6.09,2.4,0,1.44.09,2.9-.68,4.2-.76,1.28-2.16,1.18-3.35,1.56-1.55.49-1.97,1.23-1.9,2.89.09,2.29,1.47,3.69,3.71,3.28,1.93-.35,3.73-.76,5.44.5Z"/>
      <path class="cls-1" d="M293.07,102.46c-.16-1.35.98-1.67,1.54-2.38,1-1.3,1.02-2.74.3-4.05-.66-1.21-2.02-1.44-3.35-1.44-.16,0-.32.03-.47.08-3.9,1.37-6.42-.35-8.28-3.64-1.62-2.86-3.88-5-6.9-6.42-1.99-.94-2.03-1.69-.44-3.05.74-.63,1.47-1.18,1.86-2.12.51-1.24,1.39-1.6,2.7-1.11.79.3,1.58.14,1.97-.78.34-.82.14-1.58-.39-2.23-.3-.36-.75-.6-1.09-.93-1.32-1.29-1.32-1.3-.36-2.64.18-.26.48-.44.64-.71.88-1.41.63-2.69-.53-3.84-.94-.92-3.2-.73-2.78-2.72.31-1.48,2.16-1.06,3.19-1.76.39-.26.95-.35,1.25-.68,2.64-2.92,6.12-2.22,9.43-2.27,1.18-.02,2.15.53,3.04,1.25.99.8,1.9,1.76,2.99,2.39,3.42,2,6.96,3.18,10.87,1.21.99-.5,2.07-.86,3.15-1.15,1.44-.38,2.74-.56,3.43,1.4.71,2.02,2.61,1.49,4.14,1.29,1.78-.23,3.06-1.5,3.32-2.99.27-1.56-.18-2.89-1.45-3.81-.76-.56-1.66-.94-2.51-1.35-2.46-1.18-3-3.2-2.53-6.08.12-.7.7-1.12,1.34-1.18.95-.1,1.91-.03,2.87-.01,2.13.04,3.65-1.06,4.86-2.64.8-1.04,1.18-2.17.76-3.57-1.3-4.34-1.27-8.82-1.37-13.31-.07-2.77.48-5.39,1.05-8.05.5-2.33,1.7-4.06,3.87-5.17,1.72-.88,3.4-1.87,5.34-2.01,1.83-.13,3.45-.64,4.86-1.79,1.57-1.28,3.34-1.86,5.34-1.68,1.78.16,2.99-.74,4.14-1.97,1.63-1.74,3.38-3.39,5.27-5.26,1.51.33,2.48,2.09,4.21,1.79,2.38-.41,4.83-.75,6.67-2.41,2.61-2.36,5.67-2.97,8.91-2.45,4.53.72,8.92-.36,13.34-.75,2.38-.21,4.76-.47,7.15-.48,1.6,0,3.22.1,4.75-.46,2.74-1.01,5.38-.48,7.92.57,2.23.93,4.41,1.89,6.89,1.83.82-.02,1.63.14,2.22.72,2.25,2.22,4.89,2,7.63,1.34,3.12-.75,6.24-1.42,9.48-1.11,2.54.25,5.07.55,7.61.83.98.11,1.86.43,2.56,1.16.56.57,1.12,1.15,1.74,1.66,1.42,1.17,2.44.99,3.55-.62.27-.39.4-.87.62-1.29.57-1.1,1.55-1.63,2.73-1.67,4.86-.16,9.54.63,13.94,2.82.98.49,1.41,1.25,1.32,2.31-.31,3.81-.3,7.62-.74,11.45-.55,4.75-1.11,9.51-1.56,14.28-.5,5.4-1.09,10.79-1.65,16.19-.94,9.05-1.87,18.09-2.86,27.14-.48,4.44-1.09,8.86-1.6,13.3-.2,1.75-.34,3.5-.41,5.26-.18,4.63-.83,9.2-1.43,13.79-.64,4.91-.97,9.86-1.46,14.79-.48,4.75-1.02,9.5-1.5,14.25-.49,4.92-.9,9.85-1.42,14.76-.48,4.6-1.1,9.18-1.59,13.78-.44,4.13-.77,8.27-1.19,12.4-.97,9.52-1.92,19.05-2.96,28.57-.24,2.22-.28,4.44-.58,6.66-.31,2.29-1.42,3.4-3.31,4.2-3.09,1.32-6.15,2.68-9.23,4.02-11.86,5.18-23.71,10.36-35.57,15.54-11.86,5.18-23.72,10.35-35.58,15.52-.59.26-1.21.44-1.76.75-1.58.9-3,1.02-4.21-.6-.29-.38-.61-.8-1.01-1.01-2.95-1.57-3.11-4.2-2.69-7.03.29-1.91.88-3.72,1.77-5.45.51-.99.72-2.2,1.72-2.8,1.15-.69,2.1.29,3.09.72,1.49.65,2.43-.3,3.39-1.12,1.37-1.17,1.72-2.73,1.15-4.35-.36-1.02-1.01-2.03-1.77-2.8-1.28-1.31-2.25-2.57-2.09-4.58.16-1.96.97-3.3,2.66-4.21.27-.15.51-.39.73-.62.99-1,.85-2.49-.4-3.29-.94-.6-2.01-.98-2.98-1.54-1.1-.63-2.19-1.3-3.21-2.06-.32-.24-.52-.82-.53-1.25-.02-.51.47-.73.95-.85,1.08-.27,2.19-.47,3.22-.87,1.18-.45,1.64-1.51,1.42-2.71-.23-1.21-1.03-2.05-2.21-2.17-.63-.07-1.29-.07-1.91.04-1.37.24-2.09-.46-2.55-1.61-.29-.74-.52-1.52-.9-2.21-.64-1.18-1.57-2.14-3.01-2.02-2.14.17-3.21-.96-3.96-2.75-.38-.89-1-1.71-2.06-1.83-1.95-.23-2.82-1.41-2.84-3.22-.02-1.42-.5-2.49-1.69-3.22-1.02-.63-1.35-1.68-1.91-2.64-1.28-2.19-1.59-4.1-.64-6.68,1.26-3.45,1.1-7.21.34-10.89-.35-1.7-1.07-3.07-2.65-3.73-3.82-1.6-6.37-3.9-6.13-8.53.07-1.46-.94-3.01-1.58-4.46-.61-1.38-2-2.04-3.11-1.13-1.78,1.47-3.04.7-4.64-.16-1.85-.99-3.48-2.19-4.45-4.02-.56-1.05-1.2-1.83-2.21-2.4-.85-.48-1.54-1.12-1.75-2.16-.39-1.94-1.78-2.25-3.53-2.45-2.36-.27-2.92-1.28-2.22-3.66.66-2.26,1.2-4.34-1.11-6.04-.68-.5-.66-1.42-.55-2.23.46-3.54-.64-6.6-2.81-9.36-.89-1.13-1.79-2.28-1.94-3.79-.31-3.07-2.13-4.87-4.86-5.95-.45-.18-.89-.35-1.32-.57-.44-.22-.79-.58-.62-1.09.07-.21.45-.38.71-.44.61-.14,1.28-.07,1.84-.3.96-.4,1.43-1.21,1.43-2.28,0-1.13-.64-1.78-1.62-2.11-.89-.31-1.82-.51-2.67-.75Z"/>
      <path class="cls-1" d="M26.47,130.44c2.02,1.58,4.33,1.67,6.79,1.32,2.16-.31,4.06-.79,4.91-3.12.35-.96,1.13-1.53,2.19-1.61,3.4-.26,3.75-3,4.33-5.46.21-.9-.04-1.9-.09-2.86-.08-1.61.09-3.2.62-4.73,1.28-3.68,2.9-4.69,6.84-4.23.79.09,1.54.39,2.34.07,2.77-1.1,5.33-.3,7.86.87.58.27,1.17.56,1.78.69,1.42.31,2.28.9,2.12,2.58-.25,2.52,1.46,3.75,3.46,4.61,1.42.61,2.81.46,4.01-.64,1.23-1.13,1.26-2.55.8-3.98-.24-.73-.68-1.53-1.27-1.97-1.46-1.08-2.06-2.28-1.52-4.1.36-1.2-.49-2.15-1.17-3.02-1.38-1.76-1.64-3.77-1.52-5.89.11-1.87.77-2.63,2.54-2.89.47-.07.96-.07,1.44-.04,1.81.13,3.03-.63,3.84-2.26.59-1.21,1.47-2.11,3.03-1.74,1.61.39,3.15.82,3.1,2.98-.01.43.22.93.49,1.29.53.7,1.31.85,2.15.71.88-.15,1.4-.69,1.55-1.57.36-2.07-.3-3.78-1.87-5.14-.84-.73-1.76-1.32-2.09-2.52-.44-1.61.62-3,2.23-2.64.91.2,1.75.72,2.63,1.05,1.07.39,1.85,0,2.33-.98.69-1.4.61-2.78.06-4.18-.52-1.34-1.09-2.66-1.56-4.01-.34-.99.3-1.91,1.38-2.04.63-.08,1.28-.11,1.91-.06,1.76.13,3.17-.4,3.98-2.03.62-1.24,1.67-1.82,2.9-2.32,4.73-1.92,7.35-5.92,9.7-10.13.31-.55.37-1.24.69-1.77.33-.56.95-.99,1.59-.57,1.81,1.18,3.7,1.52,5.88,1.42,2.28-.1,4.24,1.07,5.98,2.65,1.73,1.58,1.87,1.56,3.9-.04,1.03-.81,1.96-.99,3.06-.39.56.31,1.09.67,1.62,1.02,2.08,1.36,4.07,1.93,5.8-.54.5-.72,1.29-.93,2.12-.88,1.43.09,2.9.1,4.28.42,2.37.56,2.99,1.92,1.67,4.11-1.11,1.85-.95,3.65-.51,5.53.46,1.97,1.45,2.88,3.19,3.07,1.7.19,3.22-.15,4.14-1.75.72-1.25,1.35-2.54,1.98-3.83,1.1-2.25,1.4-4.26-.1-6.72-2.23-3.65-.19-7.42,4.07-8.15,3.64-.63,7.33-.62,10.99-.08,2.72.4,5.27,1.16,7.22,3.36,1.33,1.5,3.08,2.22,5.17,1.95.61-.08,1.27.03,1.88.18,1.63.39,2.23,1.15,2.47,3.01.1.79.19,1.58.24,2.38.07,1.04.66,1.76,1.38,2.42,1.04.96,2.66.61,3.06-.78.31-1.06.29-2.2.53-3.29.32-1.44,1.82-2.21,2.92-1.31,4.08,3.37,8.75,2.44,13.3,1.93,2.21-.24,4.39-.86,6.64-.77,2.43.09,4.76-.2,7-1.24,1.98-.92,4.01-1.04,5.91.33,1.85,1.34,3.72.98,5.34-.25,2.47-1.88,5.28-2.39,8.16-2.06,5.44.61,10.36-1.49,15.47-2.6.9-.2,1.76-.78,2.51-1.35,2.26-1.73,4.75-1.67,7.32-1.09,1.47.33,2.74,1.06,3.2,2.58.7,2.27,2.06,3.45,4.5,3.51,1.25.03,2.35,1.03,2.08,2.18-.78,3.43,1.54,4.84,3.72,6.16-.05,1.18-.74,1.62-1.34,2.14-1.18,1-1.36,2.08-.25,3.28.3.33.66.83.05,1.18-1.99,1.13-1.95,3.85-4.25,4.96-1.59.77-1.33,3.58.34,4.43,4.01,2.02,6.77,5.17,9.15,8.84,1.41,2.17,3.55,3.14,6.19,2.81.32-.04.64-.02.96-.02,1.19,0,2.74-.83,3.28.89.43,1.36-1.17,1.7-1.85,2.49-1.32,1.52-1.14,3,.57,3.92.41.22.91.3,1.36.44.44.13.96.14,1.11.74-.51,1.2-1.69.3-2.48.76-1.7,1.01-1.87,3.33-.17,4.28,1.11.62,2.31,1.07,3.49,1.57,1.59.68,2.67,1.85,2.92,3.54.26,1.81.9,3.4,2.12,4.72,2.22,2.4,2.81,5.29,2.73,8.43-.04,1.9-.28,3.86,1.76,5.1.59.36.47,1.15.35,1.77-.18.94-.58,1.86-.61,2.79-.1,2.74.83,3.9,3.63,4.66.61.17,1.47.09,1.64.75.59,2.29,3.33,2.68,4.09,4.46.82,1.93,2.62,2.76,3.55,4.37.72,1.24,1.53,1.94,2.99,1.94.41,0,.93.33,1.2.67,1.18,1.47,2.13.87,3.14-.19.42-.45.89-.95,1.96-.72.88,2.12,2.1,4.28,1.99,6.96-.09,2.28,1.07,3.93,3.15,4.93,1.15.55,2.24,1.23,3.38,1.82.75.39,1.22.98,1.52,1.76,1.42,3.57.74,4.75-3.05,4.7-4.46-.06-8.95.47-13.39-.5-.77-.17-1.59-.05-2.39-.06-9.91-.06-19.83-.06-29.74-.18-8.3-.1-16.59-.91-24.9-.57-2.07.09-3.67-.92-5.29-1.96-6.04-3.91-12.07-7.83-18.11-11.73-6.44-4.16-12.9-8.29-19.34-12.45-3.63-2.34-7.25-4.67-10.84-7.07-1.62-1.09-3.25-1.66-5.29-1.81-3.38-.25-6.7.25-10.05.26-20.47.04-40.94.13-61.4.19-5.12.02-10.24.07-15.35-.02-2.41-.04-4.16.73-5.83,2.58-7.5,8.29-15.19,16.42-22.76,24.65-2.7,2.94-5.3,5.98-7.88,9.02-1.87,2.21-3.84,3.3-7.04,2.81-7.71-1.19-15.5-1.89-23.27-2.78-1.43-.16-2.82-.39-4.22-.79-2.61-.75-5.31-1.14-8.05-.98-5.32.32-10.47-1.1-15.73-1.43-.61-.04-1.2-.41-1.8-.64-.66-.26-.98-.79-.98-1.48.01-1.92.15-3.84.07-5.75-.14-3.24-.99-6.03-4.79-6.73-.87-.16-1.32-.82-1.36-1.72-.03-.68.16-1.31.82-1.55.42-.16.94-.07,1.41-.09,3.39-.17,4.46-1.21,4.67-4.55.22-3.51-1.37-5.74-4.57-6.07-1.46-.15-2.83-.25-4-1.27-1.97-1.72-1.81-4.22.44-5.52,1.66-.96,3.36-1.84,5.04-2.77.86-.48,1.78-.83,2.74-.47,1.96.72,3.4-.06,4.68-1.47.31-.34.71-.6,1.23-1.03Z"/>
      <path class="cls-1" d="M1288.36,459.38c-3.38-2.2-6.95-1.85-10.44-1.76-4.25.11-8.32-.61-12.02-2.68-3.06-1.71-5.96-3.71-8.92-5.6-.58-.37-.88-.95-.75-1.63,1.13-5.96-2.23-10.77-4.12-15.94-.52-1.43-1.57-2.44-3.18-2.58-1.99-.17-2.91-1.37-3.88-3.03-1.19-2.04-2.96-3.74-4.53-5.55-.65-.75-1.51-1.16-2.56-1-1.42.21-2.88.25-4.27.61-3,.77-5.34-.27-7.32-2.41-1.08-1.17-2.16-2.32-2.87-3.81-.46-.98-1.21-1.91-2.03-2.63-2.08-1.81-4.38-3.14-7.35-2.76-1.74.22-3.51.16-5.26.3-.78.06-1.56.17-2.22.73-2.6,2.2-5.72,2.62-8.96,2.39-1.93-.13-3.84-.18-5.73.21-1.87.38-3.71.72-4.79,2.71-.69,1.27-2.13,2.03-3.49,2.42-3.82,1.11-6.21,3.75-8.1,7.03-.16.28-.4.52-.51.81-.99,2.71-3.14,3.83-5.78,4.42-2.38.53-2.92.28-2.86-2.11.06-2.23-.56-4.02-2.19-5.58-1.14-1.1-2.03-2.46-3.05-3.68-.51-.6-.99-1.32-1.65-1.69-1.61-.88-3.78-1.31-2.38-3.96-.54-1.15-.95-2.38-1.63-3.44-1.9-2.95-3.87-5.86-5.87-8.74-1.42-2.04-3.25-3.49-5.86-3.74-1.28-.12-2.6-.41-3.41-1.52-1.13-1.54-2.74-2.2-4.46-2.57-1.78-.38-3.24-1.3-4.72-2.24-3.36-2.15-6.67-4.39-10.11-6.41-3.62-2.12-5.46-5.24-5.91-9.31-.23-2.06-.49-4.11-.7-6.17-.29-2.75.55-5.04,2.81-6.73,1.82-1.37,3.29-3.07,4.4-5.02,5.16-9.02,11.11-17.54,16.72-26.27,1.14-1.78,2-3.56,1.91-5.79-.08-1.96-.84-3.35-2.49-4.33-1.78-1.06-3.53-2.18-5.33-3.22-1.15-.67-2.01-1.59-2.62-2.73-.71-1.3-1.05-2.64-.27-4.1.76-1.41,1.34-2.9,2.08-4.32,2.49-4.76,3.85-9.79,3.64-15.2-.04-.96.01-1.92,0-2.88,0-2.18.37-4.09,2.68-5.13,1.45-.65,2-1.94,1.91-3.55-.07-1.28,0-2.56,0-3.84.02-1.86.81-3.41,2.07-4.7,1.22-1.26,3.19-1.41,4.22-.02,1.72,2.3,4.08,3.5,6.55,4.62,2.45,1.11,3.92,3.17,5.4,5.29,1.66,2.38,4.07,2.4,5.93.14,1.11-1.35,2.08-2.83,3.22-4.16,1.42-1.65,2.34-3.42,1.94-5.67-.34-1.95.69-3.13,2.41-3.56,2.31-.57,4.68-1.08,7.04-1.22,1.74-.1,3.49.55,4.8,1.86,1.24,1.24,2.49,2.5,3.52,3.9,6.04,8.22,13.75,14.63,22.02,20.44,1.83,1.29,3.62,2.64,5.52,3.81,2.72,1.67,5.46,3.34,8.68,3.92,2.52.45,3.88,1.94,4.36,4.43.27,1.4.67,2.81,1.24,4.12,1.37,3.17,1.96,6.49,1.42,9.83-.76,4.73,1.75,7.14,5.49,8.95.29.14.58.3.88.37,3.02.72,5.12,2.64,6.45,5.31,2.55,5.11,6.84,7.24,12.28,7.9,2.23.27,4.43.48,6.67.51,5.88.09,10.89-2.12,15.35-5.77,2.81-2.3,5.13-2.84,7.68-.73,6.25,5.18,13.85,7.11,21.32,9.41.3.09.63.13.93.21q4.78,1.35,4.8,6.54c0,.8-.04,1.61.05,2.4.48,4.35-.6,8.15-3.46,11.57-3.63,4.33-4.45,9.42-3.3,14.88.44,2.11,1.37,3.9,3.2,5.15,1.85,1.25,3.63,2.62,5.54,3.75,3.24,1.92,4.18,3.82,3.32,7.48-.25,1.08-.68,2.13-1.04,3.19-1.01,2.99-.79,5.94.07,8.94.53,1.84,1.67,2.88,3.45,2.59,2.46-.41,3.51.95,4.41,2.78.42.86.92,1.69,1.28,2.57.6,1.47.29,2.82-.75,4-2.1,2.39-4.66,3.75-7.92,3.84-4.27.12-7.98,1.82-11.53,4.12-3.67,2.37-4.33,5.88-3.56,9.59.73,3.53-.02,6.65-1.32,9.75-1,2.39-2.52,4.24-5.07,5.41-2.85,1.31-5.68,2.91-7.12,6.28Z"/>
      <path class="cls-1" d="M1233.32,455.25c-2.77-.23-4.87-.2-6.9-.6-4.22-.83-7.91.53-11.42,2.53-2.07,1.18-4.06,2.57-5.91,4.08-4.02,3.3-8.5,4.07-13.47,3-2.67-.57-5.26-1.33-7.8-2.33-1.93-.76-3.87-1.52-5.86-2.11-1.82-.54-3.62-.73-5.62-.42-3.77.59-7.63.75-11.41-.34-2.33-.67-4.37-.12-6.27,1.38-.99.79-2.1,1.47-3.25,1.98-.96.43-1.92.02-2.47-.89-.98-1.61-1.17-3.34-.1-4.97,2.15-3.26,5.32-4.98,9.09-5.66.85-.15,1.58.27,2.06.96,1.34,1.91,2.99,1.94,5.06,1.23,3.93-1.34,7.9-.69,11.81.23.9.21,1.84.68,2.54,1.28,3.71,3.19,8.04,4.18,12.83,4.54,2.59.19,4.72-.27,6.8-1.49,1.08-.64,2.13-1.47,2.94-2.42.93-1.1,2.03-1.34,3.35-1.49,6.68-.74,13.38-.64,20.08-.57,2.58.03,5.08-.29,7.4-1.58,3.58-2,4.05-7.58.79-10.16-.25-.2-.5-.47-.79-.53-3.67-.78-5.06-3.5-5.91-6.76-.42-1.61-1.71-2.2-3.26-2.36-.16-.02-.33-.06-.48-.03-3.35.71-6.01-.41-8.89-2.26-3.43-2.2-7.43-1.07-11.1.23-.66.23-1.21,1.03-1.61,1.68-.5.81-.94,1.7-1.14,2.62-.6,2.69-1.88,4.32-4.94,3.86-.57-.08-1.29.2-1.8.54-3.58,2.4-7.3,1.7-11.04.6-1.23-.36-2.4-.99-3.65-1.15-2.9-.37-4.4-2.15-5.61-4.62-2.91-5.94-2.81-3.77.51-9.31,1.2-2,2.75-3.48,4.95-4.32,1.04-.4,2.2-.75,3.01-1.46,4.17-3.69,9.31-3.92,14.42-4.1,2.6-.1,5-.27,7.27-1.84,2.38-1.65,5.2-1.19,7.9-.82.62.09,1.21.45,1.83.55,2.37.37,4.03,1.58,5.19,3.72,1.65,3.06,4.35,5.03,7.39,6.61,1.2.62,2.36.92,3.67.53.31-.09.62-.14.94-.19,5.35-.78,6.66-.3,9.11,4.6,1.05,2.11,2.32,3.35,4.55,3.67,1.47.21,2.21,1.2,2.68,2.44.34.89.68,1.81.79,2.75.17,1.48.64,2.78,1.59,3.93,1.18,1.42,1.5,3.11,1.54,4.93.06,2.5-.82,3.94-3.33,5.02-4.27,1.84-8.49,3.69-13.05,4.67-1.87.4-3.75.88-5,.62Z"/>
      <path class="cls-1" d="M465.63,531.03c.15.01.31.06.44.02.3-.08.39-.94.89-.26.06.08,0,.36-.08.44-.3.24-.56.14-.8-.18-.06-.08-.3-.03-.46-.03h0Z"/>
      <path class="cls-1" d="M465.63,531.02c.19.73.78,1.38.52,2.21-.03.1-.18.2-.29.21-.1.01-.31-.09-.31-.14.01-.76.05-1.52.09-2.28,0,0,0-.01,0-.01Z"/>
    </g>
  </g>
</svg>